<svg width="40" height="40" viewBox="0 0 40 40" fill="none" xmlns="http://www.w3.org/2000/svg">
<rect x="0.5" y="0.5" width="39" height="39" rx="19.5" fill="#3E3FD8" stroke="#EEF4FF"/>
<path d="M16.44 16.442C16.44 16.934 16.524 17.378 16.692 17.774C16.86 18.158 17.094 18.488 17.394 18.764C17.706 19.04 18.072 19.25 18.492 19.394C18.924 19.538 19.398 19.61 19.914 19.61C20.43 19.61 20.898 19.538 21.318 19.394C21.75 19.25 22.116 19.04 22.416 18.764C22.728 18.488 22.968 18.158 23.136 17.774C23.304 17.378 23.388 16.934 23.388 16.442C23.388 15.842 23.232 15.302 22.92 14.822C22.62 14.33 22.206 13.94 21.678 13.652C21.162 13.364 20.574 13.22 19.914 13.22C19.254 13.22 18.66 13.364 18.132 13.652C17.616 13.94 17.202 14.33 16.89 14.822C16.59 15.302 16.44 15.842 16.44 16.442ZM17.898 16.622C17.898 16.226 17.982 15.872 18.15 15.56C18.33 15.248 18.57 15.008 18.87 14.84C19.182 14.66 19.53 14.57 19.914 14.57C20.31 14.57 20.658 14.66 20.958 14.84C21.258 15.008 21.492 15.248 21.66 15.56C21.84 15.872 21.93 16.226 21.93 16.622C21.93 17.018 21.834 17.366 21.642 17.666C21.462 17.966 21.216 18.2 20.904 18.368C20.604 18.536 20.274 18.62 19.914 18.62C19.554 18.62 19.218 18.536 18.906 18.368C18.606 18.2 18.36 17.966 18.168 17.666C17.988 17.366 17.898 17.018 17.898 16.622ZM15.99 22.58C15.99 23.072 16.086 23.534 16.278 23.966C16.482 24.398 16.758 24.782 17.106 25.118C17.466 25.454 17.88 25.718 18.348 25.91C18.828 26.09 19.35 26.18 19.914 26.18C20.478 26.18 20.994 26.09 21.462 25.91C21.942 25.718 22.356 25.454 22.704 25.118C23.064 24.782 23.34 24.398 23.532 23.966C23.736 23.534 23.838 23.072 23.838 22.58C23.838 22.004 23.73 21.494 23.514 21.05C23.31 20.594 23.022 20.216 22.65 19.916C22.29 19.604 21.87 19.37 21.39 19.214C20.922 19.058 20.43 18.98 19.914 18.98C19.398 18.98 18.9 19.058 18.42 19.214C17.952 19.37 17.532 19.604 17.16 19.916C16.8 20.216 16.512 20.594 16.296 21.05C16.092 21.494 15.99 22.004 15.99 22.58ZM17.448 22.4C17.448 21.944 17.562 21.536 17.79 21.176C18.03 20.804 18.336 20.51 18.708 20.294C19.092 20.078 19.494 19.97 19.914 19.97C20.334 19.97 20.73 20.078 21.102 20.294C21.486 20.51 21.792 20.804 22.02 21.176C22.26 21.536 22.38 21.944 22.38 22.4C22.38 22.916 22.26 23.354 22.02 23.714C21.792 24.074 21.486 24.35 21.102 24.542C20.73 24.734 20.334 24.83 19.914 24.83C19.494 24.83 19.092 24.734 18.708 24.542C18.336 24.35 18.03 24.074 17.79 23.714C17.562 23.354 17.448 22.916 17.448 22.4ZM25.9962 22.13H34.7262V20.69H25.9962V22.13ZM29.5962 17V25.82H31.1262V17H29.5962Z" fill="white"/>
</svg>
